# xmcd
#
# Track frame offsets:
#	150
#	10963
#	24467
#	53730
#	74937
#	89167
#	105768
#	126962
#	140709
#	153983
#	171109
#	191620
#	210423
#	239180
#	262380
#	287981
#
# Disc length: 4069 seconds
#
# Revision: 1
# Processed by: cddbd v1.5.2PL0 Copyright (c) Steve Scherf et al.
# Submitted via: audiograbber 1.82.01
#
DISCID=fb0fe310
DTITLE=Ñaco Goñi - Blues con los Colegas CD 1
DYEAR=2006
DGENRE=Blues
TTITLE0=Ñaco Goñi and Armando Marcé - Betica Stomp
TTITLE1=Ñaco Goñi and Los Jokers y Christian Rannenberg - Little Laura
TTITLE2=Ñaco Goñi and Whisky David y Bluescavidas - When my Babe Loves me
TTITLE3=Ñako Goñi and Tonky Blues Band (de 1988) - Necesitas Mucha Pasta
TTITLE4=Ñako Goñi and J. Teixi Band (Mermelada) - Las Ratas y yo
TTITLE5=Ñako Goñi and Fede Aguado - Dices Que no Tengo Feeling
TTITLE6=Ñako Goñi and Miguel Ríos - Cosas que Debo a Madrid
TTITLE7=Ñako Goñi and Amar Sundy - Sadaka
TTITLE8=Ñako Goñi and Edu Bighands y Whiskey Train - You Don´t Have to go
TTITLE9=Ñako Goñi and Antonio Serrano - Blues con los Colegas
TTITLE10=Ñako Goñi and Miki Nervio - Crazy About you
TTITLE11=Ñako Goñi and Mingo Balaguer con Danny 'Boy' - Baby's Boogie
TTITLE12=Ñako Goñi and Bluescavidas y Raimundo Amador - Peña, Peña, Peña
TTITLE13=Ñako Goñi and Stevie Zee - Bright Lights, Big City
TTITLE14=Ñako Goñi and Tea - The Hunter
TTITLE15=Ñako Goñi and Xulian Freire - I'm a Stranger Here
EXTD=
EXTT0=
EXTT1=
EXTT2=
EXTT3=
EXTT4=
EXTT5=
EXTT6=
EXTT7=
EXTT8=
EXTT9=
EXTT10=
EXTT11=
EXTT12=
EXTT13=
EXTT14=
EXTT15=
PLAYORDER=
